REM DIRINDEX 1\2,1\4,1\3\5,1\3\6,1\3\7
REM DIRNAME folder01,folder02,folder03,folder04,folder05,folder06,folder07
TITLE ""
FILE "CD2Track30.mp3" MP3
  TRACK 01 AUDIO
    TITLE "0:"
    INDEX 01 00:00:00
  TRACK 02 AUDIO
    TITLE "5:cjc082_1856"
    INDEX 01 00:00:27
  TRACK 03 AUDIO
    TITLE "0:"
    INDEX 01 00:01:50
  TRACK 04 AUDIO
    TITLE "6:cjc082_1857"
    INDEX 01 00:02:26
  TRACK 05 AUDIO
    TITLE "0:"
    INDEX 01 00:03:35
  TRACK 06 AUDIO
    TITLE "5:cjc082_1858"
    INDEX 01 00:04:13
  TRACK 07 AUDIO
    TITLE "0:"
    INDEX 01 00:05:48
  TRACK 08 AUDIO
    TITLE "6:cjc082_1859"
    INDEX 01 00:06:22
  TRACK 09 AUDIO
    TITLE "0:"
    INDEX 01 00:07:27
  TRACK 10 AUDIO
    TITLE "5:cjc082_1860"
    INDEX 01 00:08:05
  TRACK 11 AUDIO
    TITLE "0:"
    INDEX 01 00:09:20
  TRACK 12 AUDIO
    TITLE "6:cjc082_1861"
    INDEX 01 00:09:69
  TRACK 13 AUDIO
    TITLE "0:"
    INDEX 01 00:12:54
  TRACK 14 AUDIO
    TITLE "5:cjc082_1862"
    INDEX 01 00:13:28
  TRACK 15 AUDIO
    TITLE "0:"
    INDEX 01 00:15:15
  TRACK 16 AUDIO
    TITLE "6:cjc082_1863"
    INDEX 01 00:15:64
  TRACK 17 AUDIO
    TITLE "0:"
    INDEX 01 00:17:65
  TRACK 18 AUDIO
    TITLE "5:cjc082_1864"
    INDEX 01 00:18:42
  TRACK 19 AUDIO
    TITLE "0:"
    INDEX 01 00:19:65
  TRACK 20 AUDIO
    TITLE "6:cjc082_1865"
    INDEX 01 00:20:37
  TRACK 21 AUDIO
    TITLE "0:"
    INDEX 01 00:22:74
  TRACK 22 AUDIO
    TITLE "5:cjc082_1866"
    INDEX 01 00:23:44
  TRACK 23 AUDIO
    TITLE "0:"
    INDEX 01 00:24:51
  TRACK 24 AUDIO
    TITLE "6:cjc082_1867"
    INDEX 01 00:25:27
  TRACK 25 AUDIO
    TITLE "0:"
    INDEX 01 00:27:30
  TRACK 26 AUDIO
    TITLE "5:cjc082_1868"
    INDEX 01 00:28:00
  TRACK 27 AUDIO
    TITLE "0:"
    INDEX 01 00:29:11
  TRACK 28 AUDIO
    TITLE "6:cjc082_1869"
    INDEX 01 00:29:64
  TRACK 29 AUDIO
    TITLE "0:"
    INDEX 01 00:30:71
  TRACK 30 AUDIO
    TITLE "5:cjc082_1870"
    INDEX 01 00:31:47
  TRACK 31 AUDIO
    TITLE "0:"
    INDEX 01 00:32:74
  TRACK 32 AUDIO
    TITLE "6:cjc082_1871"
    INDEX 01 00:33:54
  TRACK 33 AUDIO
    TITLE "0:"
    INDEX 01 00:35:27
  TRACK 34 AUDIO
    TITLE "5:cjc082_1872"
    INDEX 01 00:36:01
  TRACK 35 AUDIO
    TITLE "0:"
    INDEX 01 00:37:12
  TRACK 36 AUDIO
    TITLE "6:cjc082_1873"
    INDEX 01 00:37:59
  TRACK 37 AUDIO
    TITLE "0:"
    INDEX 01 00:39:60
  TRACK 38 AUDIO
    TITLE "5:cjc082_1874"
    INDEX 01 00:40:32
  TRACK 39 AUDIO
    TITLE "0:"
    INDEX 01 00:41:65
  TRACK 40 AUDIO
    TITLE "6:cjc082_1875"
    INDEX 01 00:42:41
  TRACK 41 AUDIO
    TITLE "0:"
    INDEX 01 00:44:48
  TRACK 42 AUDIO
    TITLE "5:cjc082_1876"
    INDEX 01 00:45:18
  TRACK 43 AUDIO
    TITLE "0:"
    INDEX 01 00:46:53
  TRACK 44 AUDIO
    TITLE "6:cjc082_1877"
    INDEX 01 00:47:25
  TRACK 45 AUDIO
    TITLE "0:"
    INDEX 01 00:48:51
  TRACK 46 AUDIO
    TITLE "5:cjc082_1878"
    INDEX 01 00:49:27
  TRACK 47 AUDIO
    TITLE "0:"
    INDEX 01 00:50:35
  TRACK 48 AUDIO
    TITLE "6:cjc082_1879"
    INDEX 01 00:51:01
  TRACK 49 AUDIO
    TITLE "0:"
    INDEX 01 00:53:68
  TRACK 50 AUDIO
    TITLE "5:cjc082_1880"
    INDEX 01 00:54:44
  TRACK 51 AUDIO
    TITLE "0:"
    INDEX 01 00:55:65
  TRACK 52 AUDIO
    TITLE "6:cjc082_1881"
    INDEX 01 00:56:39
  TRACK 53 AUDIO
    TITLE "0:"
    INDEX 01 00:57:68
  TRACK 54 AUDIO
    TITLE "5:cjc082_1882"
    INDEX 01 00:58:36
  TRACK 55 AUDIO
    TITLE "0:"
    INDEX 01 00:59:53
  TRACK 56 AUDIO
    TITLE "6:cjc082_1883"
    INDEX 01 01:00:23
  TRACK 57 AUDIO
    TITLE "0:"
    INDEX 01 01:04:11
  TRACK 58 AUDIO
    TITLE "5:cjc082_1884"
    INDEX 01 01:04:60
  TRACK 59 AUDIO
    TITLE "0:"
    INDEX 01 01:06:02
  TRACK 60 AUDIO
    TITLE "6:cjc082_1885"
    INDEX 01 01:06:53
  TRACK 61 AUDIO
    TITLE "0:"
    INDEX 01 01:07:53
  TRACK 62 AUDIO
    TITLE "7:cjc082_1886"
    INDEX 01 01:09:20
  TRACK 63 AUDIO
    TITLE "0:"
    INDEX 01 01:19:44
